<svg width="603" height="737" viewBox="0 0 603 737" fill="none" xmlns="http://www.w3.org/2000/svg">
<path d="M314.288 0.153484C143.519 5.28929 5.3368 143.425 0.153764 314.181C-5.43069 497.878 141.819 648.552 324.276 648.552C410.44 648.552 488.728 614.927 546.792 560.098H446.686C437.654 560.098 428.728 561.94 420.345 565.293C391.809 576.686 360.782 583.168 328.29 583.652C180.438 585.907 59.8944 462.907 65.0066 315.138C69.8236 176.093 184.063 64.8528 324.276 64.8528C358.173 64.8528 390.558 71.3818 420.227 83.2119C428.728 86.5885 437.76 88.4421 446.898 88.4421H546.792C488.728 33.6248 410.428 0 324.276 0C320.959 0 317.629 0.047226 314.288 0.153484Z" fill="black" fill-opacity="0.02"/>
<path d="M871.249 132.246H470.68C480.963 138.019 495.367 146.945 508.957 160.522C521.707 173.25 530.822 186.154 537.103 196.497H681.036V479.249C681.036 500.548 698.308 517.797 719.595 517.797H756.868V196.497H909.797V170.806C909.797 149.507 892.548 132.246 871.249 132.246Z" fill="black" fill-opacity="0.02"/>
<path d="M115.604 325.033V691.104C127.646 699.026 140.846 706.972 155.214 714.623C177.21 726.323 193.266 733.548 201.708 736.996V684.882L201 485.153C231.685 505.767 268.627 517.797 308.379 517.797C414.85 517.797 501.167 431.492 501.167 325.033C501.167 218.551 414.85 132.246 308.379 132.246C201.909 132.246 115.604 218.551 115.604 325.033ZM201.283 325.033C201.283 265.871 249.241 217.914 308.379 217.914C367.53 217.914 415.488 265.871 415.488 325.033C415.488 384.172 367.53 432.13 308.379 432.13C249.241 432.13 201.283 384.172 201.283 325.033Z" fill="black" fill-opacity="0.02"/>
<path d="M553.892 241.706V478.083C553.892 500.35 571.944 518.402 594.211 518.402H612.919H631.626V281.813C631.626 259.664 613.68 241.706 591.531 241.706H553.892Z" fill="black" fill-opacity="0.02"/>
</svg>
