<svg width="31" height="28" viewBox="0 0 31 28" fill="none" xmlns="http://www.w3.org/2000/svg">
<path d="M15.5239 23.7082C15.5239 23.7082 24.7257 18.5516 26.6927 12.7754C28.0888 8.67562 26.6919 3.29167 21.1083 3.29167C15.5247 3.29167 16.983 9.12483 15.5239 9.12483C14.0648 9.12483 15.5239 3.29167 9.96363 3.29167C4.40333 3.29167 2.95908 8.67562 4.35518 12.7754C6.3184 18.5406 15.5239 23.7082 15.5239 23.7082ZM21.1083 0.375C28.4382 0.375 31.66 7.2364 29.4537 13.7156C28.4757 16.5874 26.2557 19.2807 23.1741 21.8839C21.8141 23.0327 20.3692 24.0889 18.9248 25.0352C18.0536 25.606 17.3659 26.0194 16.9498 26.2526L15.5227 27.0523L14.0962 26.2515C13.6804 26.0181 12.993 25.6044 12.1221 25.0332C10.6783 24.0863 9.23395 23.0298 7.8745 21.8812C4.79133 19.2764 2.57103 16.5841 1.5942 13.7156C-0.607442 7.25023 2.65392 0.375 9.96363 0.375C12.4281 0.375 14.2633 1.19317 15.5282 2.6117C16.7975 1.1928 18.6381 0.375 21.1083 0.375ZM10.0313 6.20833C9.60319 6.20833 9.0377 6.30258 8.44838 6.59724C7.4065 7.11818 6.75002 8.1029 6.75002 9.48958C6.75002 10.0936 7.23971 10.5833 7.84377 10.5833C8.44783 10.5833 8.93752 10.0936 8.93752 9.48958C8.93752 8.96221 9.10136 8.71645 9.42666 8.5538C9.65765 8.4383 9.91248 8.39583 10.0313 8.39583C10.6353 8.39583 11.125 7.90615 11.125 7.30208C11.125 6.69802 10.6353 6.20833 10.0313 6.20833Z" fill="#F8F8F8"/>
</svg>
