<svg width="165" height="685" viewBox="0 0 165 685" fill="none" xmlns="http://www.w3.org/2000/svg">
<path d="M-183.432 333.741C-178.726 338.448 -178.726 346.079 -183.432 350.785C-188.139 355.492 -195.77 355.492 -200.477 350.785C-205.184 346.079 -205.184 338.448 -200.477 333.741C-195.77 329.034 -188.139 329.034 -183.432 333.741Z" fill="#2D2D2D"/>
<path d="M-134.004 384.874C-129.768 389.11 -129.768 395.978 -134.004 400.214C-138.24 404.45 -145.108 404.45 -149.344 400.214C-153.58 395.978 -153.58 389.11 -149.344 384.874C-145.108 380.638 -138.24 380.638 -134.004 384.874Z" fill="#2D2D2D"/>
<path d="M-87.5575 434.729C-84.0275 438.259 -84.0275 443.982 -87.5575 447.512C-91.0875 451.043 -96.8108 451.043 -100.341 447.512C-103.871 443.982 -103.871 438.259 -100.341 434.729C-96.8108 431.199 -91.0875 431.199 -87.5575 434.729Z" fill="#2D2D2D"/>
<path d="M-42.8158 481.175C-39.9918 483.999 -39.9918 488.578 -42.8158 491.402C-45.6398 494.226 -50.2185 494.226 -53.0425 491.402C-55.8665 488.578 -55.8665 483.999 -53.0425 481.175C-50.2185 478.351 -45.6399 478.351 -42.8158 481.175Z" fill="#2D2D2D"/>
<path d="M-0.20485 525.491C2.1485 527.844 2.1485 531.66 -0.204848 534.013C-2.55819 536.367 -6.37372 536.367 -8.72707 534.013C-11.0804 531.66 -11.0804 527.844 -8.72707 525.491C-6.37373 523.138 -2.5582 523.138 -0.20485 525.491Z" fill="#2D2D2D"/>
<path d="M39.4237 568.528C41.071 570.175 41.071 572.846 39.4237 574.494C37.7763 576.141 35.1054 576.141 33.4581 574.494C31.8108 572.846 31.8108 570.175 33.4581 568.528C35.1054 566.881 37.7763 566.881 39.4237 568.528Z" fill="#2D2D2D"/>
<path d="M77.7735 608.583C78.9502 609.759 78.9502 611.667 77.7735 612.844C76.5968 614.02 74.6891 614.02 73.5124 612.844C72.3357 611.667 72.3357 609.759 73.5124 608.583C74.6891 607.406 76.5968 607.406 77.7735 608.583Z" fill="#2D2D2D"/>
<path d="M114.419 646.932C115.125 647.638 115.125 648.783 114.419 649.489C113.713 650.195 112.569 650.195 111.863 649.489C111.157 648.783 111.157 647.638 111.863 646.932C112.569 646.226 113.713 646.226 114.419 646.932Z" fill="#2D2D2D"/>
<path d="M149.36 683.578C149.595 683.813 149.595 684.195 149.36 684.43C149.125 684.666 148.743 684.666 148.508 684.43C148.273 684.195 148.273 683.813 148.508 683.578C148.743 683.343 149.125 683.343 149.36 683.578Z" fill="#2D2D2D"/>
<path d="M-149.344 284.312C-145.108 280.076 -138.24 280.076 -134.004 284.312C-129.768 288.548 -129.768 295.416 -134.004 299.652C-138.24 303.888 -145.108 303.888 -149.344 299.652C-153.58 295.416 -153.58 288.548 -149.344 284.312Z" fill="#2D2D2D"/>
<path d="M-99.4887 237.866C-95.9587 234.336 -90.2354 234.336 -86.7053 237.866C-83.1753 241.396 -83.1753 247.119 -86.7054 250.649C-90.2354 254.179 -95.9586 254.179 -99.4887 250.649C-103.019 247.119 -103.019 241.396 -99.4887 237.866Z" fill="#2D2D2D"/>
<path d="M-53.0425 193.124C-50.2184 190.3 -45.6398 190.3 -42.8158 193.124C-39.9918 195.948 -39.9918 200.527 -42.8158 203.351C-45.6398 206.175 -50.2184 206.175 -53.0425 203.351C-55.8665 200.527 -55.8665 195.948 -53.0425 193.124Z" fill="#2D2D2D"/>
<path d="M-8.72709 150.513C-6.37375 148.16 -2.55818 148.16 -0.204839 150.513C2.14852 152.867 2.1485 156.682 -0.204839 159.036C-2.5582 161.389 -6.3737 161.389 -8.72706 159.036C-11.0804 156.682 -11.0804 152.867 -8.72709 150.513Z" fill="#2D2D2D"/>
<path d="M34.3103 110.885C35.9576 109.238 38.6285 109.238 40.2758 110.885C41.9232 112.532 41.9232 115.203 40.2758 116.85C38.6285 118.498 35.9576 118.498 34.3103 116.85C32.6629 115.203 32.6629 112.532 34.3103 110.885Z" fill="#2D2D2D"/>
<path d="M74.3647 72.5349C75.5413 71.3583 77.4491 71.3583 78.6258 72.5349C79.8024 73.7116 79.8025 75.6194 78.6258 76.796C77.4491 77.9727 75.5413 77.9727 74.3646 76.7961C73.188 75.6194 73.188 73.7116 74.3647 72.5349Z" fill="#2D2D2D"/>
<path d="M112.715 35.8896C113.421 35.1836 114.565 35.1835 115.271 35.8895C115.977 36.5955 115.977 37.7402 115.271 38.4462C114.565 39.1522 113.421 39.1522 112.715 38.4462C112.009 37.7402 112.009 36.5956 112.715 35.8896Z" fill="#2D2D2D"/>
<path d="M149.36 0.948541C149.595 0.713199 149.977 0.713242 150.212 0.948585C150.448 1.18393 150.448 1.56545 150.212 1.80079C149.977 2.03611 149.595 2.03613 149.36 1.80079C149.125 1.56545 149.125 1.18386 149.36 0.948541Z" fill="#2D2D2D"/>
<path d="M-98.6364 334.167C-95.1064 330.637 -89.3831 330.637 -85.8531 334.167C-82.323 337.697 -82.3231 343.42 -85.8531 346.95C-89.3831 350.48 -95.1064 350.48 -98.6364 346.95C-102.166 343.42 -102.166 337.697 -98.6364 334.167Z" fill="#2D2D2D"/>
<path d="M-52.1902 289.425C-49.3662 286.601 -44.7876 286.601 -41.9636 289.425C-39.1396 292.249 -39.1396 296.828 -41.9636 299.652C-44.7876 302.476 -49.3662 302.476 -52.1903 299.652C-55.0143 296.828 -55.0143 292.249 -52.1902 289.425Z" fill="#2D2D2D"/>
<path d="M-7.87478 246.814C-5.52144 244.461 -1.70591 244.461 0.647431 246.814C3.00079 249.168 3.00078 252.983 0.647441 255.337C-1.70591 257.69 -5.52142 257.69 -7.87478 255.337C-10.2281 252.983 -10.2281 249.168 -7.87478 246.814Z" fill="#2D2D2D"/>
<path d="M35.1626 207.186C36.8099 205.539 39.4808 205.539 41.1281 207.186C42.7755 208.833 42.7754 211.504 41.1281 213.151C39.4808 214.799 36.8099 214.799 35.1626 213.151C33.5152 211.504 33.5152 208.833 35.1626 207.186Z" fill="#2D2D2D"/>
<path d="M75.2169 168.836C76.3936 167.659 78.3014 167.659 79.478 168.836C80.6547 170.013 80.6547 171.92 79.478 173.097C78.3014 174.274 76.3936 174.274 75.2169 173.097C74.0402 171.92 74.0403 170.013 75.2169 168.836Z" fill="#2D2D2D"/>
<path d="M113.567 132.19C114.273 131.484 115.417 131.484 116.123 132.19C116.829 132.896 116.829 134.041 116.123 134.747C115.417 135.453 114.273 135.453 113.567 134.747C112.861 134.041 112.861 132.896 113.567 132.19Z" fill="#2D2D2D"/>
<path d="M150.212 97.2495C150.448 97.0141 150.829 97.0141 151.064 97.2495C151.3 97.4848 151.3 97.8663 151.064 98.1017C150.829 98.337 150.448 98.337 150.212 98.1017C149.977 97.8663 149.977 97.4848 150.212 97.2495Z" fill="#2D2D2D"/>
<path d="M-35.9982 385.727C-33.1742 388.551 -33.1742 393.129 -35.9982 395.953C-38.8222 398.777 -43.4008 398.777 -46.2248 395.953C-49.0489 393.129 -49.0489 388.551 -46.2249 385.727C-43.4008 382.903 -38.8222 382.903 -35.9982 385.727Z" fill="#2D2D2D"/>
<path d="M6.61268 430.042C8.96604 432.396 8.96602 436.211 6.61268 438.564C4.25933 440.918 0.443826 440.918 -1.90954 438.564C-4.26288 436.211 -4.26286 432.396 -1.90952 430.042C0.443826 427.689 4.25934 427.689 6.61268 430.042Z" fill="#2D2D2D"/>
<path d="M46.2412 473.079C47.8885 474.727 47.8885 477.397 46.2412 479.045C44.5938 480.692 41.923 480.692 40.2756 479.045C38.6283 477.397 38.6283 474.727 40.2756 473.079C41.923 471.432 44.5939 471.432 46.2412 473.079Z" fill="#2D2D2D"/>
<path d="M84.5911 513.134C85.7677 514.311 85.7677 516.218 84.5911 517.395C83.4144 518.572 81.5066 518.572 80.33 517.395C79.1533 516.218 79.1533 514.311 80.33 513.134C81.5066 511.957 83.4144 511.957 84.5911 513.134Z" fill="#2D2D2D"/>
<path d="M121.237 551.484C121.943 552.19 121.943 553.334 121.237 554.04C120.531 554.746 119.386 554.746 118.68 554.04C117.974 553.334 117.974 552.19 118.68 551.484C119.386 550.778 120.531 550.778 121.237 551.484Z" fill="#2D2D2D"/>
<path d="M156.178 588.129C156.413 588.365 156.413 588.746 156.178 588.982C155.942 589.217 155.561 589.217 155.325 588.982C155.09 588.746 155.09 588.365 155.325 588.129C155.561 587.894 155.942 587.894 156.178 588.129Z" fill="#2D2D2D"/>
<path d="M-1.05704 340.559C1.29631 338.205 5.11181 338.205 7.46517 340.559C9.81851 342.912 9.81853 346.728 7.46518 349.081C5.11184 351.434 1.2963 351.434 -1.05704 349.081C-3.41041 346.728 -3.41038 342.912 -1.05704 340.559Z" fill="#2D2D2D"/>
<path d="M41.9803 300.93C43.6277 299.283 46.2985 299.283 47.9458 300.93C49.5932 302.578 49.5932 305.249 47.9459 306.896C46.2985 308.543 43.6277 308.543 41.9803 306.896C40.333 305.248 40.333 302.578 41.9803 300.93Z" fill="#2D2D2D"/>
<path d="M82.0347 262.58C83.2114 261.404 85.1191 261.404 86.2958 262.58C87.4725 263.757 87.4725 265.665 86.2958 266.841C85.1191 268.018 83.2113 268.018 82.0346 266.841C80.858 265.665 80.858 263.757 82.0347 262.58Z" fill="#2D2D2D"/>
<path d="M120.385 225.935C121.091 225.229 122.235 225.229 122.941 225.935C123.647 226.641 123.647 227.786 122.941 228.492C122.235 229.198 121.091 229.198 120.385 228.492C119.679 227.786 119.679 226.641 120.385 225.935Z" fill="#2D2D2D"/>
<path d="M157.03 190.994C157.265 190.759 157.647 190.759 157.882 190.994C158.118 191.229 158.118 191.611 157.882 191.846C157.647 192.081 157.265 192.082 157.03 191.846C156.795 191.611 156.795 191.229 157.03 190.994Z" fill="#2D2D2D"/>
<path d="M48.7977 385.301C50.4451 386.948 50.4451 389.619 48.7977 391.266C47.1504 392.914 44.4795 392.914 42.8322 391.266C41.1849 389.619 41.1849 386.948 42.8322 385.301C44.4795 383.653 47.1504 383.653 48.7977 385.301Z" fill="#2D2D2D"/>
<path d="M87.1476 425.355C88.3243 426.532 88.3243 428.44 87.1476 429.616C85.9709 430.793 84.0632 430.793 82.8865 429.616C81.7098 428.44 81.7098 426.532 82.8865 425.355C84.0632 424.179 85.9709 424.179 87.1476 425.355Z" fill="#2D2D2D"/>
<path d="M123.793 463.705C124.499 464.411 124.499 465.556 123.793 466.262C123.087 466.968 121.943 466.968 121.237 466.262C120.531 465.556 120.531 464.411 121.237 463.705C121.943 462.999 123.087 462.999 123.793 463.705Z" fill="#2D2D2D"/>
<path d="M158.734 500.351C158.97 500.586 158.97 500.968 158.734 501.203C158.499 501.438 158.117 501.438 157.882 501.203C157.647 500.968 157.647 500.586 157.882 500.351C158.117 500.115 158.499 500.115 158.734 500.351Z" fill="#2D2D2D"/>
<path d="M83.7389 344.394C84.9156 343.217 86.8233 343.217 88 344.394C89.1767 345.571 89.1767 347.478 88 348.655C86.8233 349.832 84.9156 349.832 83.7389 348.655C82.5622 347.478 82.5622 345.571 83.7389 344.394Z" fill="#2D2D2D"/>
<path d="M122.089 307.749C122.795 307.043 123.939 307.043 124.645 307.749C125.351 308.455 125.351 309.599 124.645 310.305C123.939 311.011 122.795 311.011 122.089 310.305C121.383 309.599 121.383 308.455 122.089 307.749Z" fill="#2D2D2D"/>
<path d="M158.735 272.807C158.97 272.572 159.351 272.572 159.587 272.807C159.822 273.043 159.822 273.424 159.587 273.659C159.351 273.895 158.97 273.895 158.735 273.659C158.499 273.424 158.499 273.043 158.735 272.807Z" fill="#2D2D2D"/>
<path d="M126.35 386.153C127.056 386.859 127.056 388.004 126.35 388.71C125.644 389.416 124.499 389.416 123.793 388.71C123.087 388.004 123.087 386.859 123.793 386.153C124.499 385.447 125.644 385.447 126.35 386.153Z" fill="#2D2D2D"/>
<path d="M161.291 422.799C161.526 423.034 161.526 423.416 161.291 423.651C161.055 423.886 160.674 423.886 160.438 423.651C160.203 423.416 160.203 423.034 160.438 422.799C160.674 422.563 161.055 422.563 161.291 422.799Z" fill="#2D2D2D"/>
<path d="M163.848 348.655C164.083 348.89 164.083 349.272 163.848 349.507C163.612 349.743 163.231 349.743 162.995 349.507C162.76 349.272 162.76 348.89 162.995 348.655C163.231 348.42 163.612 348.42 163.848 348.655Z" fill="#2D2D2D"/>
</svg>
