<svg width="532" height="531" viewBox="0 0 532 531" fill="none" xmlns="http://www.w3.org/2000/svg">
<path d="M518.58 25.8394C511.445 25.8394 505.661 20.0551 505.661 12.9197C505.661 5.78435 511.445 -3.11896e-07 518.58 0C525.716 3.11896e-07 531.5 5.78435 531.5 12.9197C531.5 20.0551 525.716 25.8394 518.58 25.8394Z" fill="#2D2D2D"/>
<path d="M442.354 24.5472C435.932 24.5472 430.726 19.3413 430.726 12.9195C430.726 6.49768 435.932 1.29177 442.354 1.29177C448.776 1.29177 453.982 6.49768 453.982 12.9195C453.982 19.3413 448.776 24.5472 442.354 24.5472Z" fill="#2D2D2D"/>
<path d="M369.358 21.9636C364.006 21.9636 359.668 17.6253 359.668 12.2738C359.668 6.92228 364.006 2.58402 369.358 2.58402C374.709 2.58402 379.047 6.92229 379.047 12.2738C379.047 17.6253 374.709 21.9636 369.358 21.9636Z" fill="#2D2D2D"/>
<path d="M300.237 20.6717C295.956 20.6717 292.485 17.2011 292.485 12.9198C292.485 8.63862 295.956 5.16802 300.237 5.16802C304.518 5.16802 307.989 8.63862 307.989 12.9198C307.989 17.2011 304.518 20.6717 300.237 20.6717Z" fill="#2D2D2D"/>
<path d="M234.347 19.3795C230.779 19.3795 227.887 16.4873 227.887 12.9196C227.887 9.35193 230.779 6.45975 234.347 6.45975C237.914 6.45975 240.807 9.35193 240.807 12.9196C240.807 16.4873 237.914 19.3795 234.347 19.3795Z" fill="#2D2D2D"/>
<path d="M171.686 16.7958C169.189 16.7958 167.164 14.7713 167.164 12.2739C167.164 9.77653 169.189 7.75201 171.686 7.75201C174.184 7.75201 176.208 9.77653 176.208 12.2739C176.208 14.7713 174.184 16.7958 171.686 16.7958Z" fill="#2D2D2D"/>
<path d="M112.255 15.5036C110.472 15.5036 109.026 14.0575 109.026 12.2737C109.026 10.4898 110.472 9.04375 112.255 9.04375C114.039 9.04375 115.485 10.4898 115.485 12.2737C115.485 14.0575 114.039 15.5036 112.255 15.5036Z" fill="#2D2D2D"/>
<path d="M55.4087 14.2119C54.3384 14.2119 53.4708 13.3443 53.4708 12.274C53.4708 11.2037 54.3384 10.336 55.4087 10.336C56.479 10.336 57.3467 11.2037 57.3467 12.274C57.3467 13.3443 56.479 14.2119 55.4087 14.2119Z" fill="#2D2D2D"/>
<path d="M1.14599 12.9197C0.789217 12.9197 0.5 12.6305 0.5 12.2737C0.5 11.917 0.789217 11.6277 1.14599 11.6277C1.50275 11.6277 1.79197 11.917 1.79197 12.2737C1.79197 12.6305 1.50275 12.9197 1.14599 12.9197Z" fill="#2D2D2D"/>
<path d="M530.208 89.146C530.208 95.5678 525.002 100.774 518.58 100.774C512.158 100.774 506.953 95.5678 506.953 89.146C506.953 82.7242 512.158 77.5182 518.58 77.5182C525.002 77.5182 530.208 82.7242 530.208 89.146Z" fill="#2D2D2D"/>
<path d="M527.624 162.142C527.624 167.494 523.286 171.832 517.934 171.832C512.583 171.832 508.245 167.494 508.245 162.142C508.245 156.791 512.583 152.452 517.934 152.452C523.286 152.452 527.624 156.791 527.624 162.142Z" fill="#2D2D2D"/>
<path d="M526.332 231.263C526.332 235.544 522.861 239.015 518.58 239.015C514.299 239.015 510.828 235.544 510.828 231.263C510.828 226.982 514.299 223.511 518.58 223.511C522.861 223.511 526.332 226.982 526.332 231.263Z" fill="#2D2D2D"/>
<path d="M525.04 297.153C525.04 300.721 522.148 303.613 518.58 303.613C515.013 303.613 512.12 300.721 512.12 297.153C512.12 293.585 515.013 290.693 518.58 290.693C522.148 290.693 525.04 293.585 525.04 297.153Z" fill="#2D2D2D"/>
<path d="M522.456 359.814C522.456 362.311 520.432 364.336 517.934 364.336C515.437 364.336 513.412 362.311 513.412 359.814C513.412 357.317 515.437 355.292 517.934 355.292C520.432 355.292 522.456 357.317 522.456 359.814Z" fill="#2D2D2D"/>
<path d="M521.164 419.245C521.164 421.028 519.718 422.474 517.934 422.474C516.15 422.474 514.704 421.028 514.704 419.245C514.704 417.461 516.15 416.015 517.934 416.015C519.718 416.015 521.164 417.461 521.164 419.245Z" fill="#2D2D2D"/>
<path d="M519.872 476.091C519.872 477.161 519.005 478.029 517.934 478.029C516.864 478.029 515.996 477.161 515.996 476.091C515.996 475.021 516.864 474.153 517.934 474.153C519.005 474.153 519.872 475.021 519.872 476.091Z" fill="#2D2D2D"/>
<path d="M518.58 530.354C518.58 530.71 518.291 531 517.934 531C517.577 531 517.288 530.71 517.288 530.354C517.288 529.997 517.577 529.708 517.934 529.708C518.291 529.708 518.58 529.997 518.58 530.354Z" fill="#2D2D2D"/>
<path d="M453.982 89.792C453.982 95.1435 449.643 99.4818 444.292 99.4818C438.94 99.4818 434.602 95.1435 434.602 89.792C434.602 84.4405 438.94 80.1022 444.292 80.1022C449.643 80.1022 453.982 84.4405 453.982 89.792Z" fill="#2D2D2D"/>
<path d="M452.69 158.913C452.69 163.194 449.219 166.664 444.938 166.664C440.657 166.664 437.186 163.194 437.186 158.913C437.186 154.631 440.657 151.161 444.938 151.161C449.219 151.161 452.69 154.631 452.69 158.913Z" fill="#2D2D2D"/>
<path d="M451.398 224.803C451.398 228.371 448.506 231.263 444.938 231.263C441.37 231.263 438.478 228.371 438.478 224.803C438.478 221.235 441.37 218.343 444.938 218.343C448.506 218.343 451.398 221.235 451.398 224.803Z" fill="#2D2D2D"/>
<path d="M448.814 287.464C448.814 289.961 446.789 291.986 444.292 291.986C441.795 291.986 439.77 289.961 439.77 287.464C439.77 284.966 441.795 282.942 444.292 282.942C446.789 282.942 448.814 284.966 448.814 287.464Z" fill="#2D2D2D"/>
<path d="M447.522 346.894C447.522 348.678 446.076 350.124 444.292 350.124C442.508 350.124 441.062 348.678 441.062 346.894C441.062 345.11 442.508 343.664 444.292 343.664C446.076 343.664 447.522 345.11 447.522 346.894Z" fill="#2D2D2D"/>
<path d="M446.23 403.741C446.23 404.811 445.362 405.679 444.292 405.679C443.222 405.679 442.354 404.811 442.354 403.741C442.354 402.671 443.222 401.803 444.292 401.803C445.362 401.803 446.23 402.671 446.23 403.741Z" fill="#2D2D2D"/>
<path d="M444.938 458.003C444.938 458.36 444.649 458.649 444.292 458.649C443.935 458.649 443.646 458.36 443.646 458.003C443.646 457.647 443.935 457.357 444.292 457.357C444.649 457.357 444.938 457.647 444.938 458.003Z" fill="#2D2D2D"/>
<path d="M367.42 98.1896C363.138 98.1896 359.668 94.719 359.668 90.4378C359.668 86.1566 363.138 82.686 367.42 82.686C371.701 82.686 375.172 86.1566 375.172 90.4378C375.172 94.719 371.701 98.1896 367.42 98.1896Z" fill="#2D2D2D"/>
<path d="M301.529 96.8974C297.962 96.8974 295.069 94.0052 295.069 90.4376C295.069 86.8699 297.962 83.9777 301.529 83.9777C305.097 83.9777 307.989 86.8699 307.989 90.4376C307.989 94.0053 305.097 96.8974 301.529 96.8974Z" fill="#2D2D2D"/>
<path d="M238.869 94.3138C236.371 94.3138 234.347 92.2892 234.347 89.7919C234.347 87.2945 236.371 85.27 238.869 85.27C241.366 85.27 243.391 87.2945 243.391 89.7919C243.391 92.2892 241.366 94.3138 238.869 94.3138Z" fill="#2D2D2D"/>
<path d="M179.438 93.0216C177.654 93.0216 176.208 91.5755 176.208 89.7916C176.208 88.0078 177.654 86.5617 179.438 86.5617C181.222 86.5617 182.668 88.0078 182.668 89.7916C182.668 91.5755 181.222 93.0216 179.438 93.0216Z" fill="#2D2D2D"/>
<path d="M122.591 91.7299C121.521 91.7299 120.653 90.8622 120.653 89.7919C120.653 88.7216 121.521 87.854 122.591 87.854C123.662 87.854 124.529 88.7216 124.529 89.7919C124.529 90.8622 123.662 91.7299 122.591 91.7299Z" fill="#2D2D2D"/>
<path d="M68.3286 90.4377C67.9718 90.4377 67.6826 90.1485 67.6826 89.7917C67.6826 89.4349 67.9718 89.1457 68.3286 89.1457C68.6853 89.1457 68.9746 89.4349 68.9746 89.7917C68.9746 90.1485 68.6853 90.4377 68.3286 90.4377Z" fill="#2D2D2D"/>
<path d="M375.172 158.912C375.172 162.48 372.279 165.372 368.712 165.372C365.144 165.372 362.252 162.48 362.252 158.912C362.252 155.345 365.144 152.452 368.712 152.452C372.279 152.452 375.172 155.345 375.172 158.912Z" fill="#2D2D2D"/>
<path d="M372.588 221.573C372.588 224.071 370.563 226.095 368.066 226.095C365.568 226.095 363.544 224.071 363.544 221.573C363.544 219.076 365.568 217.051 368.066 217.051C370.563 217.051 372.588 219.076 372.588 221.573Z" fill="#2D2D2D"/>
<path d="M371.296 281.004C371.296 282.788 369.85 284.234 368.066 284.234C366.282 284.234 364.836 282.788 364.836 281.004C364.836 279.22 366.282 277.774 368.066 277.774C369.85 277.774 371.296 279.22 371.296 281.004Z" fill="#2D2D2D"/>
<path d="M370.004 337.85C370.004 338.921 369.136 339.788 368.066 339.788C366.995 339.788 366.128 338.921 366.128 337.85C366.128 336.78 366.995 335.912 368.066 335.912C369.136 335.912 370.004 336.78 370.004 337.85Z" fill="#2D2D2D"/>
<path d="M368.712 392.113C368.712 392.47 368.422 392.759 368.066 392.759C367.709 392.759 367.42 392.47 367.42 392.113C367.42 391.756 367.709 391.467 368.066 391.467C368.422 391.467 368.712 391.756 368.712 392.113Z" fill="#2D2D2D"/>
<path d="M303.467 162.788C300.97 162.788 298.945 160.763 298.945 158.266C298.945 155.769 300.97 153.744 303.467 153.744C305.964 153.744 307.989 155.769 307.989 158.266C307.989 160.763 305.964 162.788 303.467 162.788Z" fill="#2D2D2D"/>
<path d="M244.036 161.496C242.253 161.496 240.806 160.05 240.806 158.266C240.806 156.482 242.253 155.036 244.036 155.036C245.82 155.036 247.266 156.482 247.266 158.266C247.266 160.05 245.82 161.496 244.036 161.496Z" fill="#2D2D2D"/>
<path d="M187.19 160.204C186.119 160.204 185.252 159.336 185.252 158.266C185.252 157.196 186.119 156.328 187.19 156.328C188.26 156.328 189.128 157.196 189.128 158.266C189.128 159.336 188.26 160.204 187.19 160.204Z" fill="#2D2D2D"/>
<path d="M132.927 158.912C132.57 158.912 132.281 158.623 132.281 158.266C132.281 157.909 132.57 157.62 132.927 157.62C133.284 157.62 133.573 157.909 133.573 158.266C133.573 158.623 133.284 158.912 132.927 158.912Z" fill="#2D2D2D"/>
<path d="M307.989 220.281C307.989 222.065 306.543 223.511 304.759 223.511C302.975 223.511 301.529 222.065 301.529 220.281C301.529 218.497 302.975 217.051 304.759 217.051C306.543 217.051 307.989 218.497 307.989 220.281Z" fill="#2D2D2D"/>
<path d="M306.697 277.127C306.697 278.198 305.829 279.065 304.759 279.065C303.689 279.065 302.821 278.198 302.821 277.127C302.821 276.057 303.689 275.189 304.759 275.189C305.829 275.189 306.697 276.057 306.697 277.127Z" fill="#2D2D2D"/>
<path d="M305.405 331.39C305.405 331.747 305.116 332.036 304.759 332.036C304.402 332.036 304.113 331.747 304.113 331.39C304.113 331.034 304.402 330.744 304.759 330.744C305.116 330.744 305.405 331.034 305.405 331.39Z" fill="#2D2D2D"/>
<path d="M244.036 220.926C242.966 220.926 242.099 220.059 242.099 218.988C242.099 217.918 242.966 217.05 244.036 217.05C245.107 217.05 245.974 217.918 245.974 218.988C245.974 220.059 245.107 220.926 244.036 220.926Z" fill="#2D2D2D"/>
<path d="M189.774 219.634C189.417 219.634 189.128 219.345 189.128 218.988C189.128 218.631 189.417 218.342 189.774 218.342C190.131 218.342 190.42 218.631 190.42 218.988C190.42 219.345 190.131 219.634 189.774 219.634Z" fill="#2D2D2D"/>
<path d="M244.036 277.773C243.68 277.773 243.39 277.484 243.39 277.127C243.39 276.771 243.68 276.481 244.036 276.481C244.393 276.481 244.682 276.771 244.682 277.127C244.682 277.484 244.393 277.773 244.036 277.773Z" fill="#2D2D2D"/>
</svg>
