<svg width="100" height="100" viewBox="0 0 100 100" fill="none" xmlns="http://www.w3.org/2000/svg">
<path d="M85.3584 14.6477C78.3661 7.65428 69.457 2.89142 59.7577 0.961424C50.0584 -0.968576 40.0046 0.0210647 30.8679 3.80517C21.7311 7.58928 13.9216 13.998 8.42714 22.2205C2.93268 30.4432 0 40.1105 0 50C0 59.8895 2.93268 69.5568 8.42714 77.7795C13.9216 86.002 21.7311 92.4107 30.8679 96.1948C40.0046 99.9789 50.0584 100.969 59.7577 99.0386C69.457 97.1086 78.3661 92.3457 85.3584 85.3523C94.7334 75.9757 100 63.2593 100 50C100 36.7407 94.7334 24.0243 85.3584 14.6477ZM13.0402 33.0795C15.5596 27.4912 19.2929 22.5346 23.9686 18.5704C28.6441 14.6061 34.1445 11.7336 40.0695 10.162C45.9946 8.59035 52.1955 8.35911 58.2212 9.485C64.247 10.6109 69.9459 13.0655 74.9039 16.6705C62.6311 15.5114 47.2675 21.7841 34.813 34.2159C30.1125 38.9088 26.1302 44.2696 22.9948 50.125C18.7304 45.0514 15.3638 39.2866 13.0402 33.0795ZM40.6084 91.0795C31.1184 88.5368 22.8459 82.6939 17.2766 74.6002C11.7073 66.5066 9.20608 56.6925 10.2221 46.9204C15.3811 58.125 28.4039 68.3068 45.4948 72.8523C51.8752 74.583 58.4786 75.3491 65.0857 75.125C62.8402 81.3364 59.5589 87.1229 55.3811 92.2386C50.4246 92.74 45.4182 92.3318 40.6084 91.0341V91.0795ZM71.7221 43.5568C70.0373 37.1477 67.4184 31.0214 63.9493 25.375C70.4475 24.2182 77.0948 24.1721 83.6084 25.2386C86.5239 29.2748 88.6732 33.8123 89.9493 38.625C92.4962 48.1164 91.575 58.205 87.3509 67.078C83.1268 75.9511 75.877 83.0268 66.9039 87.0341C73.9948 77.0114 76.2675 60.5795 71.7221 43.5568Z" fill="black" fill-opacity="0.1"/>
</svg>
