<svg width="100" height="100" viewBox="0 0 100 100" fill="none" xmlns="http://www.w3.org/2000/svg">
<path d="M9.78754 43.8511C9.3814 42.3357 9.38134 40.7402 9.78738 39.2248C10.1934 37.7094 10.9912 36.3276 12.1006 35.2183L35.2178 12.1011C36.327 10.9917 37.7089 10.1939 39.2242 9.78791C40.7396 9.38188 42.3352 9.38193 43.8505 9.78807L65.4824 15.5843C65.7076 12.6208 66.7393 9.77538 68.466 7.3562L42.4119 0.375768C40.5418 -0.125267 38.5729 -0.125256 36.7028 0.375801C34.8327 0.876859 33.1275 1.86131 31.7585 3.23022L3.23022 31.7584C1.86131 33.1275 0.876856 34.8327 0.375801 36.7028C-0.125256 38.5728 -0.125267 40.5419 0.375768 42.4119L7.62474 69.4652C9.99444 67.6555 12.8157 66.5315 15.7807 66.2164L9.78754 43.8511Z" fill="black" fill-opacity="0.1"/>
<path d="M84.019 33.0347L90.2123 56.1475C90.6186 57.6632 90.6181 59.2585 90.2123 60.7736C89.806 62.2893 89.008 63.671 87.8987 64.7803L64.7816 87.898C63.6722 89.0073 62.2906 89.8047 60.7749 90.2111C59.2598 90.6168 57.6639 90.6168 56.1488 90.2111L33.7835 84.2179C33.4684 87.183 32.3445 90.0044 30.5347 92.3739L57.5879 99.6228C59.4578 100.124 61.4269 100.124 63.2968 99.6228C65.1672 99.1216 66.8722 98.1375 68.2414 96.7684L96.7696 68.2401C98.1388 66.871 99.1228 65.166 99.6241 63.2956C100.125 61.4257 100.125 59.4565 99.6241 57.5867L92.1017 29.5206C89.7821 31.4139 86.9852 32.6299 84.019 33.0347Z" fill="black" fill-opacity="0.1"/>
<path d="M8.27516 73.1961C6.44298 75.028 5.19525 77.3628 4.68975 79.9037C4.18425 82.4452 4.44368 85.0794 5.43524 87.4733C6.42676 89.8666 8.10591 91.9128 10.2603 93.3525C12.4147 94.7917 14.9475 95.5603 17.5386 95.5603C20.1296 95.5603 22.6625 94.7917 24.8168 93.3525C26.9712 91.9128 28.6504 89.8666 29.6419 87.4733C30.6334 85.0794 30.8929 82.4452 30.3873 79.9037C29.8819 77.3628 28.6341 75.028 26.802 73.1961C24.3432 70.7431 21.0118 69.3652 17.5386 69.3652C14.0653 69.3652 10.7339 70.7431 8.27516 73.1961Z" fill="black" fill-opacity="0.1"/>
<path d="M72.5187 7.59962C70.6868 9.43174 69.4386 11.766 68.9336 14.3073C68.428 16.8485 68.6873 19.4826 69.6789 21.8765C70.6705 24.2703 72.3495 26.3163 74.5036 27.7558C76.6583 29.1954 79.1911 29.9637 81.7819 29.9637C84.3732 29.9637 86.906 29.1954 89.0607 27.7558C91.2148 26.3163 92.8937 24.2703 93.8853 21.8765C94.877 19.4826 95.1363 16.8485 94.6307 14.3073C94.1257 11.766 92.8774 9.43174 91.0455 7.59962C88.5871 5.14642 85.2553 3.7687 81.7819 3.7687C78.309 3.7687 74.9772 5.14642 72.5187 7.59962Z" fill="black" fill-opacity="0.1"/>
<path d="M57.6893 84.7262C57.1632 84.7262 56.6397 84.6573 56.1314 84.5211L35.6588 79.0352C34.9761 75.3898 33.2076 72.0358 30.5851 69.4135C27.9626 66.7912 24.6087 65.0222 20.9634 64.3398L15.478 43.8688C15.206 42.8477 15.2068 41.7732 15.4803 40.7525C15.7538 39.7318 16.2904 38.8008 17.0365 38.0525L38.0494 17.039C38.7969 16.2915 39.7279 15.754 40.749 15.4804C41.7701 15.2068 42.8452 15.2069 43.8663 15.4805L63.7649 20.8124C64.5542 24.4352 66.4192 27.7351 69.1158 30.28C71.8124 32.8248 75.2148 34.4959 78.8769 35.0744L84.5186 56.1339C84.7904 57.1554 84.7898 58.23 84.5159 59.2504C84.2425 60.2713 83.706 61.2022 82.9595 61.9508L61.9466 82.9637C61.389 83.5241 60.725 83.9689 59.9943 84.2711C59.2636 84.5738 58.4803 84.7284 57.6893 84.7262Z" fill="black" fill-opacity="0.1"/>
</svg>
