<svg width="100" height="119" viewBox="0 0 100 119" fill="none" xmlns="http://www.w3.org/2000/svg">
<path d="M0.888321 33.1356C1.3788 33.1356 1.77665 32.7366 1.77665 32.2441C1.77665 31.7518 1.3788 31.3525 0.888321 31.3525C0.397627 31.3525 0 31.7518 0 32.2441C0 32.7366 0.397627 33.1356 0.888321 33.1356Z" fill="black" fill-opacity="0.1"/>
<path d="M20.5584 32.9875C21.0491 32.9875 21.4467 32.5884 21.4467 32.0959C21.4467 31.6035 21.0491 31.2044 20.5584 31.2044C20.0679 31.2044 19.67 31.6035 19.67 32.0959C19.67 32.5884 20.0679 32.9875 20.5584 32.9875Z" fill="black" fill-opacity="0.1"/>
<path d="M10.7236 38.8037C11.2143 38.8037 11.6119 38.4044 11.6119 37.9122C11.6119 37.4197 11.2143 37.0206 10.7236 37.0206C10.2331 37.0206 9.83524 37.4197 9.83524 37.9122C9.83524 38.4044 10.2331 38.8037 10.7236 38.8037Z" fill="black" fill-opacity="0.1"/>
<path d="M0.888321 44.6412C1.3788 44.6412 1.77665 44.2419 1.77665 43.7496C1.77665 43.2572 1.3788 42.8581 0.888321 42.8581C0.397627 42.8581 0 43.2572 0 43.7496C0 44.2419 0.397627 44.6412 0.888321 44.6412Z" fill="black" fill-opacity="0.1"/>
<path d="M50.0634 27.9354C51.0797 27.9354 51.9036 27.1084 51.9036 26.0886C51.9036 25.0687 51.0797 24.2419 50.0634 24.2419C49.0474 24.2419 48.2234 25.0687 48.2234 26.0886C48.2234 27.1084 49.0474 27.9354 50.0634 27.9354Z" fill="black" fill-opacity="0.1"/>
<path d="M40.2286 33.7729C41.2449 33.7729 42.0687 32.9459 42.0687 31.9261C42.0687 30.9061 41.2449 30.0793 40.2286 30.0793C39.2126 30.0793 38.3885 30.9061 38.3885 31.9261C38.3885 32.9459 39.2126 33.7729 40.2286 33.7729Z" fill="black" fill-opacity="0.1"/>
<path d="M30.3934 39.6103C31.4097 39.6103 32.2335 38.7833 32.2335 37.7636C32.2335 36.7436 31.4097 35.9168 30.3934 35.9168C29.3771 35.9168 28.5533 36.7436 28.5533 37.7636C28.5533 38.7833 29.3771 39.6103 30.3934 39.6103Z" fill="black" fill-opacity="0.1"/>
<path d="M20.5586 45.4478C21.5749 45.4478 22.3987 44.6208 22.3987 43.601C22.3987 42.5811 21.5749 41.7543 20.5586 41.7543C19.5423 41.7543 18.7185 42.5811 18.7185 43.601C18.7185 44.6208 19.5423 45.4478 20.5586 45.4478Z" fill="black" fill-opacity="0.1"/>
<path d="M10.7238 51.2641C11.7401 51.2641 12.5639 50.4371 12.5639 49.4173C12.5639 48.3973 11.7401 47.5705 10.7238 47.5705C9.70749 47.5705 8.88367 48.3973 8.88367 49.4173C8.88367 50.4371 9.70749 51.2641 10.7238 51.2641Z" fill="black" fill-opacity="0.1"/>
<path d="M0.888321 56.1461C1.3788 56.1461 1.77665 55.747 1.77665 55.2546C1.77665 54.7621 1.3788 54.363 0.888321 54.363C0.397627 54.363 0 54.7621 0 55.2546C0 55.747 0.397627 56.1461 0.888321 56.1461Z" fill="black" fill-opacity="0.1"/>
<path d="M50.0639 41.2873C52.0962 41.2873 53.7441 39.6337 53.7441 37.5938C53.7441 35.5538 52.0962 33.9002 50.0639 33.9002C48.0313 33.9002 46.3837 35.5538 46.3837 37.5938C46.3837 39.6337 48.0313 41.2873 50.0639 41.2873Z" fill="black" fill-opacity="0.1"/>
<path d="M40.2291 47.1248C42.2614 47.1248 43.9093 45.4712 43.9093 43.4312C43.9093 41.3913 42.2614 39.7377 40.2291 39.7377C38.1965 39.7377 36.5489 41.3913 36.5489 43.4312C36.5489 45.4712 38.1965 47.1248 40.2291 47.1248Z" fill="black" fill-opacity="0.1"/>
<path d="M30.3936 52.9622C32.4262 52.9622 34.0738 51.3086 34.0738 49.2687C34.0738 47.2288 32.4262 45.5752 30.3936 45.5752C28.3612 45.5752 26.7134 47.2288 26.7134 49.2687C26.7134 51.3086 28.3612 52.9622 30.3936 52.9622Z" fill="black" fill-opacity="0.1"/>
<path d="M20.5584 58.7785C22.5907 58.7785 24.2386 57.1249 24.2386 55.0849C24.2386 53.045 22.5907 51.3914 20.5584 51.3914C18.5258 51.3914 16.8782 53.045 16.8782 55.0849C16.8782 57.1249 18.5258 58.7785 20.5584 58.7785Z" fill="black" fill-opacity="0.1"/>
<path d="M10.7238 62.769C11.7401 62.769 12.5639 61.9422 12.5639 60.9222C12.5639 59.9023 11.7401 59.0755 10.7238 59.0755C9.70749 59.0755 8.88367 59.9023 8.88367 60.9222C8.88367 61.9422 9.70749 62.769 10.7238 62.769Z" fill="black" fill-opacity="0.1"/>
<path d="M0.888321 67.651C1.3788 67.651 1.77665 67.2519 1.77665 66.7595C1.77665 66.2672 1.3788 65.8679 0.888321 65.8679C0.397627 65.8679 0 66.2672 0 66.7595C0 67.2519 0.397627 67.651 0.888321 67.651Z" fill="black" fill-opacity="0.1"/>
<path d="M50.0639 52.7922C52.0962 52.7922 53.7441 51.1386 53.7441 49.0987C53.7441 47.059 52.0962 45.4051 50.0639 45.4051C48.0313 45.4051 46.3837 47.059 46.3837 49.0987C46.3837 51.1386 48.0313 52.7922 50.0639 52.7922Z" fill="black" fill-opacity="0.1"/>
<path d="M40.2291 58.6297C42.2614 58.6297 43.9093 56.9761 43.9093 54.9361C43.9093 52.8964 42.2614 51.2426 40.2291 51.2426C38.1965 51.2426 36.5489 52.8964 36.5489 54.9361C36.5489 56.9761 38.1965 58.6297 40.2291 58.6297Z" fill="black" fill-opacity="0.1"/>
<path d="M30.3936 64.4459C32.4262 64.4459 34.0738 62.7923 34.0738 60.7524C34.0738 58.7127 32.4262 57.0589 30.3936 57.0589C28.3612 57.0589 26.7134 58.7127 26.7134 60.7524C26.7134 62.7923 28.3612 64.4459 30.3936 64.4459Z" fill="black" fill-opacity="0.1"/>
<path d="M20.5584 70.2834C22.5907 70.2834 24.2386 68.6298 24.2386 66.5899C24.2386 64.5502 22.5907 62.8963 20.5584 62.8963C18.5258 62.8963 16.8782 64.5502 16.8782 66.5899C16.8782 68.6298 18.5258 70.2834 20.5584 70.2834Z" fill="black" fill-opacity="0.1"/>
<path d="M10.7238 74.2739C11.7401 74.2739 12.5639 73.4471 12.5639 72.4271C12.5639 71.4072 11.7401 70.5804 10.7238 70.5804C9.70749 70.5804 8.88367 71.4072 8.88367 72.4271C8.88367 73.4471 9.70749 74.2739 10.7238 74.2739Z" fill="black" fill-opacity="0.1"/>
<path d="M0.888321 79.1566C1.3788 79.1566 1.77665 78.7575 1.77665 78.265C1.77665 77.7726 1.3788 77.3735 0.888321 77.3735C0.397627 77.3735 0 77.7726 0 78.265C0 78.7575 0.397627 79.1566 0.888321 79.1566Z" fill="black" fill-opacity="0.1"/>
<path d="M50.0634 62.4508C51.0797 62.4508 51.9036 61.624 51.9036 60.604C51.9036 59.5841 51.0797 58.7573 50.0634 58.7573C49.0474 58.7573 48.2234 59.5841 48.2234 60.604C48.2234 61.624 49.0474 62.4508 50.0634 62.4508Z" fill="black" fill-opacity="0.1"/>
<path d="M40.2286 68.267C41.2449 68.267 42.0687 67.44 42.0687 66.4203C42.0687 65.4003 41.2449 64.5735 40.2286 64.5735C39.2126 64.5735 38.3885 65.4003 38.3885 66.4203C38.3885 67.44 39.2126 68.267 40.2286 68.267Z" fill="black" fill-opacity="0.1"/>
<path d="M30.3934 74.1045C31.4097 74.1045 32.2335 73.2775 32.2335 72.2577C32.2335 71.2378 31.4097 70.411 30.3934 70.411C29.3771 70.411 28.5533 71.2378 28.5533 72.2577C28.5533 73.2775 29.3771 74.1045 30.3934 74.1045Z" fill="black" fill-opacity="0.1"/>
<path d="M20.5586 79.942C21.5749 79.942 22.3987 79.115 22.3987 78.0952C22.3987 77.0752 21.5749 76.2484 20.5586 76.2484C19.5423 76.2484 18.7185 77.0752 18.7185 78.0952C18.7185 79.115 19.5423 79.942 20.5586 79.942Z" fill="black" fill-opacity="0.1"/>
<path d="M10.7236 84.824C11.2143 84.824 11.6119 84.4249 11.6119 83.9325C11.6119 83.4402 11.2143 83.0409 10.7236 83.0409C10.2331 83.0409 9.83524 83.4402 9.83524 83.9325C9.83524 84.4249 10.2331 84.824 10.7236 84.824Z" fill="black" fill-opacity="0.1"/>
<path d="M0.888321 90.6615C1.3788 90.6615 1.77665 90.2624 1.77665 89.77C1.77665 89.2777 1.3788 88.8784 0.888321 88.8784C0.397627 88.8784 0 89.2777 0 89.77C0 90.2624 0.397627 90.6615 0.888321 90.6615Z" fill="black" fill-opacity="0.1"/>
<path d="M50.0634 72.979C50.5539 72.979 50.9518 72.58 50.9518 72.0875C50.9518 71.5952 50.5539 71.196 50.0634 71.196C49.5728 71.196 49.1751 71.5952 49.1751 72.0875C49.1751 72.58 49.5728 72.979 50.0634 72.979Z" fill="black" fill-opacity="0.1"/>
<path d="M40.2286 78.8165C40.7193 78.8165 41.117 78.4174 41.117 77.925C41.117 77.4327 40.7193 77.0334 40.2286 77.0334C39.7382 77.0334 39.3403 77.4327 39.3403 77.925C39.3403 78.4174 39.7382 78.8165 40.2286 78.8165Z" fill="black" fill-opacity="0.1"/>
<path d="M30.3938 84.654C30.8845 84.654 31.2822 84.2549 31.2822 83.7624C31.2822 83.2702 30.8845 82.8709 30.3938 82.8709C29.9031 82.8709 29.5055 83.2702 29.5055 83.7624C29.5055 84.2549 29.9031 84.654 30.3938 84.654Z" fill="black" fill-opacity="0.1"/>
<path d="M20.5584 90.4915C21.0491 90.4915 21.4467 90.0924 21.4467 89.5999C21.4467 89.1077 21.0491 88.7084 20.5584 88.7084C20.0679 88.7084 19.67 89.1077 19.67 89.5999C19.67 90.0924 20.0679 90.4915 20.5584 90.4915Z" fill="black" fill-opacity="0.1"/>
<path d="M10.7236 96.3289C11.2143 96.3289 11.6119 95.9299 11.6119 95.4374C11.6119 94.9451 11.2143 94.5459 10.7236 94.5459C10.2331 94.5459 9.83524 94.9451 9.83524 95.4374C9.83524 95.9299 10.2331 96.3289 10.7236 96.3289Z" fill="black" fill-opacity="0.1"/>
<path d="M50.0634 84.4846C50.5539 84.4846 50.9518 84.0855 50.9518 83.5931C50.9518 83.1006 50.5539 82.7015 50.0634 82.7015C49.5728 82.7015 49.1751 83.1006 49.1751 83.5931C49.1751 84.0855 49.5728 84.4846 50.0634 84.4846Z" fill="black" fill-opacity="0.1"/>
<path d="M40.2286 90.3221C40.7193 90.3221 41.117 89.923 41.117 89.4305C41.117 88.9381 40.7193 88.539 40.2286 88.539C39.7382 88.539 39.3403 88.9381 39.3403 89.4305C39.3403 89.923 39.7382 90.3221 40.2286 90.3221Z" fill="black" fill-opacity="0.1"/>
<path d="M30.3938 96.1595C30.8845 96.1595 31.2822 95.7605 31.2822 95.268C31.2822 94.7755 30.8845 94.3765 30.3938 94.3765C29.9031 94.3765 29.5055 94.7755 29.5055 95.268C29.5055 95.7605 29.9031 96.1595 30.3938 96.1595Z" fill="black" fill-opacity="0.1"/>
<path d="M20.5584 101.997C21.0491 101.997 21.4467 101.598 21.4467 101.105C21.4467 100.613 21.0491 100.214 20.5584 100.214C20.0679 100.214 19.67 100.613 19.67 101.105C19.67 101.598 20.0679 101.997 20.5584 101.997Z" fill="black" fill-opacity="0.1"/>
<path d="M50.0634 95.9895C50.5539 95.9895 50.9518 95.5904 50.9518 95.098C50.9518 94.6057 50.5539 94.2064 50.0634 94.2064C49.5728 94.2064 49.1751 94.6057 49.1751 95.098C49.1751 95.5904 49.5728 95.9895 50.0634 95.9895Z" fill="black" fill-opacity="0.1"/>
<path d="M40.2286 101.827C40.7193 101.827 41.117 101.428 41.117 100.935C41.117 100.443 40.7193 100.044 40.2286 100.044C39.7382 100.044 39.3403 100.443 39.3403 100.935C39.3403 101.428 39.7382 101.827 40.2286 101.827Z" fill="black" fill-opacity="0.1"/>
<path d="M30.3938 107.664C30.8845 107.664 31.2822 107.265 31.2822 106.773C31.2822 106.281 30.8845 105.881 30.3938 105.881C29.9031 105.881 29.5055 106.281 29.5055 106.773C29.5055 107.265 29.9031 107.664 30.3938 107.664Z" fill="black" fill-opacity="0.1"/>
<path d="M50.0634 107.494C50.5539 107.494 50.9518 107.095 50.9518 106.603C50.9518 106.111 50.5539 105.711 50.0634 105.711C49.5728 105.711 49.1751 106.111 49.1751 106.603C49.1751 107.095 49.5728 107.494 50.0634 107.494Z" fill="black" fill-opacity="0.1"/>
<path d="M40.2286 113.332C40.7193 113.332 41.117 112.933 41.117 112.44C41.117 111.948 40.7193 111.549 40.2286 111.549C39.7382 111.549 39.3403 111.948 39.3403 112.44C39.3403 112.933 39.7382 113.332 40.2286 113.332Z" fill="black" fill-opacity="0.1"/>
<path d="M50.0634 119C50.5539 119 50.9518 118.601 50.9518 118.108C50.9518 117.616 50.5539 117.217 50.0634 117.217C49.5728 117.217 49.1751 117.616 49.1751 118.108C49.1751 118.601 49.5728 119 50.0634 119Z" fill="black" fill-opacity="0.1"/>
<path d="M99.1117 33.1356C99.6022 33.1356 100 32.7366 100 32.2441C100 31.7518 99.6022 31.3525 99.1117 31.3525C98.621 31.3525 98.2232 31.7518 98.2232 32.2441C98.2232 32.7366 98.621 33.1356 99.1117 33.1356Z" fill="black" fill-opacity="0.1"/>
<path d="M79.4207 32.9875C79.9114 32.9875 80.309 32.5884 80.309 32.0959C80.309 31.6035 79.9114 31.2044 79.4207 31.2044C78.9302 31.2044 78.5324 31.6035 78.5324 32.0959C78.5324 32.5884 78.9302 32.9875 79.4207 32.9875Z" fill="black" fill-opacity="0.1"/>
<path d="M89.2769 38.8037C89.7673 38.8037 90.165 38.4044 90.165 37.9122C90.165 37.4197 89.7673 37.0206 89.2769 37.0206C88.7862 37.0206 88.3883 37.4197 88.3883 37.9122C88.3883 38.4044 88.7862 38.8037 89.2769 38.8037Z" fill="black" fill-opacity="0.1"/>
<path d="M99.1117 44.6412C99.6022 44.6412 100 44.2419 100 43.7496C100 43.2572 99.6022 42.8581 99.1117 42.8581C98.621 42.8581 98.2232 43.2572 98.2232 43.7496C98.2232 44.2419 98.621 44.6412 99.1117 44.6412Z" fill="black" fill-opacity="0.1"/>
<path d="M49.9154 27.9354C50.9317 27.9354 51.7555 27.1084 51.7555 26.0886C51.7555 25.0687 50.9317 24.2419 49.9154 24.2419C48.8991 24.2419 48.0753 25.0687 48.0753 26.0886C48.0753 27.1084 48.8991 27.9354 49.9154 27.9354Z" fill="black" fill-opacity="0.1"/>
<path d="M59.7508 33.7729C60.7669 33.7729 61.5907 32.9459 61.5907 31.9261C61.5907 30.9061 60.7669 30.0793 59.7508 30.0793C58.7346 30.0793 57.9105 30.9061 57.9105 31.9261C57.9105 32.9459 58.7346 33.7729 59.7508 33.7729Z" fill="black" fill-opacity="0.1"/>
<path d="M69.5861 39.6103C70.6024 39.6103 71.4262 38.7833 71.4262 37.7636C71.4262 36.7436 70.6024 35.9168 69.5861 35.9168C68.5698 35.9168 67.746 36.7436 67.746 37.7636C67.746 38.7833 68.5698 39.6103 69.5861 39.6103Z" fill="black" fill-opacity="0.1"/>
<path d="M79.4209 45.4478C80.4372 45.4478 81.261 44.6208 81.261 43.601C81.261 42.5811 80.4372 41.7543 79.4209 41.7543C78.4046 41.7543 77.5808 42.5811 77.5808 43.601C77.5808 44.6208 78.4046 45.4478 79.4209 45.4478Z" fill="black" fill-opacity="0.1"/>
<path d="M89.2769 51.2641C90.2932 51.2641 91.117 50.4371 91.117 49.4173C91.117 48.3973 90.2932 47.5705 89.2769 47.5705C88.2606 47.5705 87.4368 48.3973 87.4368 49.4173C87.4368 50.4371 88.2606 51.2641 89.2769 51.2641Z" fill="black" fill-opacity="0.1"/>
<path d="M99.1117 56.1461C99.6022 56.1461 100 55.747 100 55.2546C100 54.7621 99.6022 54.363 99.1117 54.363C98.621 54.363 98.2232 54.7621 98.2232 55.2546C98.2232 55.747 98.621 56.1461 99.1117 56.1461Z" fill="black" fill-opacity="0.1"/>
<path d="M49.9156 41.2873C51.9482 41.2873 53.5958 39.6337 53.5958 37.5938C53.5958 35.5538 51.9482 33.9002 49.9156 33.9002C47.883 33.9002 46.2354 35.5538 46.2354 37.5938C46.2354 39.6337 47.883 41.2873 49.9156 41.2873Z" fill="black" fill-opacity="0.1"/>
<path d="M59.7511 47.1248C61.7836 47.1248 63.4313 45.4712 63.4313 43.4312C63.4313 41.3913 61.7836 39.7377 59.7511 39.7377C57.7185 39.7377 56.0709 41.3913 56.0709 43.4312C56.0709 45.4712 57.7185 47.1248 59.7511 47.1248Z" fill="black" fill-opacity="0.1"/>
<path d="M69.5859 52.9622C71.6184 52.9622 73.2661 51.3086 73.2661 49.2687C73.2661 47.2288 71.6184 45.5752 69.5859 45.5752C67.5533 45.5752 65.9057 47.2288 65.9057 49.2687C65.9057 51.3086 67.5533 52.9622 69.5859 52.9622Z" fill="black" fill-opacity="0.1"/>
<path d="M79.4205 58.7785C81.4531 58.7785 83.1007 57.1249 83.1007 55.0849C83.1007 53.045 81.4531 51.3914 79.4205 51.3914C77.3881 51.3914 75.7405 53.045 75.7405 55.0849C75.7405 57.1249 77.3881 58.7785 79.4205 58.7785Z" fill="black" fill-opacity="0.1"/>
<path d="M89.2769 62.769C90.2932 62.769 91.117 61.9422 91.117 60.9222C91.117 59.9023 90.2932 59.0755 89.2769 59.0755C88.2606 59.0755 87.4368 59.9023 87.4368 60.9222C87.4368 61.9422 88.2606 62.769 89.2769 62.769Z" fill="black" fill-opacity="0.1"/>
<path d="M99.1117 67.651C99.6022 67.651 100 67.2519 100 66.7595C100 66.2672 99.6022 65.8679 99.1117 65.8679C98.621 65.8679 98.2232 66.2672 98.2232 66.7595C98.2232 67.2519 98.621 67.651 99.1117 67.651Z" fill="black" fill-opacity="0.1"/>
<path d="M49.9156 52.7922C51.9482 52.7922 53.5958 51.1386 53.5958 49.0987C53.5958 47.059 51.9482 45.4051 49.9156 45.4051C47.883 45.4051 46.2354 47.059 46.2354 49.0987C46.2354 51.1386 47.883 52.7922 49.9156 52.7922Z" fill="black" fill-opacity="0.1"/>
<path d="M59.7511 58.6297C61.7836 58.6297 63.4313 56.9761 63.4313 54.9361C63.4313 52.8964 61.7836 51.2426 59.7511 51.2426C57.7185 51.2426 56.0709 52.8964 56.0709 54.9361C56.0709 56.9761 57.7185 58.6297 59.7511 58.6297Z" fill="black" fill-opacity="0.1"/>
<path d="M69.5859 64.4459C71.6184 64.4459 73.2661 62.7923 73.2661 60.7524C73.2661 58.7127 71.6184 57.0589 69.5859 57.0589C67.5533 57.0589 65.9057 58.7127 65.9057 60.7524C65.9057 62.7923 67.5533 64.4459 69.5859 64.4459Z" fill="black" fill-opacity="0.1"/>
<path d="M79.4205 70.2834C81.4531 70.2834 83.1007 68.6298 83.1007 66.5899C83.1007 64.5502 81.4531 62.8963 79.4205 62.8963C77.3881 62.8963 75.7405 64.5502 75.7405 66.5899C75.7405 68.6298 77.3881 70.2834 79.4205 70.2834Z" fill="black" fill-opacity="0.1"/>
<path d="M89.2769 74.2739C90.2932 74.2739 91.117 73.4471 91.117 72.4271C91.117 71.4072 90.2932 70.5804 89.2769 70.5804C88.2606 70.5804 87.4368 71.4072 87.4368 72.4271C87.4368 73.4471 88.2606 74.2739 89.2769 74.2739Z" fill="black" fill-opacity="0.1"/>
<path d="M99.1117 79.1566C99.6022 79.1566 100 78.7575 100 78.265C100 77.7726 99.6022 77.3735 99.1117 77.3735C98.621 77.3735 98.2232 77.7726 98.2232 78.265C98.2232 78.7575 98.621 79.1566 99.1117 79.1566Z" fill="black" fill-opacity="0.1"/>
<path d="M49.9154 62.4508C50.9317 62.4508 51.7555 61.624 51.7555 60.604C51.7555 59.5841 50.9317 58.7573 49.9154 58.7573C48.8991 58.7573 48.0753 59.5841 48.0753 60.604C48.0753 61.624 48.8991 62.4508 49.9154 62.4508Z" fill="black" fill-opacity="0.1"/>
<path d="M59.7508 68.267C60.7669 68.267 61.5907 67.44 61.5907 66.4203C61.5907 65.4003 60.7669 64.5735 59.7508 64.5735C58.7346 64.5735 57.9105 65.4003 57.9105 66.4203C57.9105 67.44 58.7346 68.267 59.7508 68.267Z" fill="black" fill-opacity="0.1"/>
<path d="M69.5861 74.1045C70.6024 74.1045 71.4262 73.2775 71.4262 72.2577C71.4262 71.2378 70.6024 70.411 69.5861 70.411C68.5698 70.411 67.746 71.2378 67.746 72.2577C67.746 73.2775 68.5698 74.1045 69.5861 74.1045Z" fill="black" fill-opacity="0.1"/>
<path d="M79.4209 79.942C80.4372 79.942 81.261 79.115 81.261 78.0952C81.261 77.0752 80.4372 76.2484 79.4209 76.2484C78.4046 76.2484 77.5808 77.0752 77.5808 78.0952C77.5808 79.115 78.4046 79.942 79.4209 79.942Z" fill="black" fill-opacity="0.1"/>
<path d="M89.2769 84.824C89.7673 84.824 90.165 84.4249 90.165 83.9325C90.165 83.4402 89.7673 83.0409 89.2769 83.0409C88.7862 83.0409 88.3883 83.4402 88.3883 83.9325C88.3883 84.4249 88.7862 84.824 89.2769 84.824Z" fill="black" fill-opacity="0.1"/>
<path d="M99.1117 90.6615C99.6022 90.6615 100 90.2624 100 89.77C100 89.2777 99.6022 88.8784 99.1117 88.8784C98.621 88.8784 98.2232 89.2777 98.2232 89.77C98.2232 90.2624 98.621 90.6615 99.1117 90.6615Z" fill="black" fill-opacity="0.1"/>
<path d="M49.9158 72.979C50.4063 72.979 50.8042 72.58 50.8042 72.0875C50.8042 71.5952 50.4063 71.196 49.9158 71.196C49.4251 71.196 49.0275 71.5952 49.0275 72.0875C49.0275 72.58 49.4251 72.979 49.9158 72.979Z" fill="black" fill-opacity="0.1"/>
<path d="M59.7506 78.8165C60.2413 78.8165 60.639 78.4174 60.639 77.925C60.639 77.4327 60.2413 77.0334 59.7506 77.0334C59.2599 77.0334 58.8623 77.4327 58.8623 77.925C58.8623 78.4174 59.2599 78.8165 59.7506 78.8165Z" fill="black" fill-opacity="0.1"/>
<path d="M69.5855 84.654C70.0761 84.654 70.4738 84.2549 70.4738 83.7624C70.4738 83.2702 70.0761 82.8709 69.5855 82.8709C69.0948 82.8709 68.6971 83.2702 68.6971 83.7624C68.6971 84.2549 69.0948 84.654 69.5855 84.654Z" fill="black" fill-opacity="0.1"/>
<path d="M79.4207 90.4915C79.9114 90.4915 80.309 90.0924 80.309 89.5999C80.309 89.1077 79.9114 88.7084 79.4207 88.7084C78.9302 88.7084 78.5324 89.1077 78.5324 89.5999C78.5324 90.0924 78.9302 90.4915 79.4207 90.4915Z" fill="black" fill-opacity="0.1"/>
<path d="M89.2769 96.3289C89.7673 96.3289 90.165 95.9299 90.165 95.4374C90.165 94.9451 89.7673 94.5459 89.2769 94.5459C88.7862 94.5459 88.3883 94.9451 88.3883 95.4374C88.3883 95.9299 88.7862 96.3289 89.2769 96.3289Z" fill="black" fill-opacity="0.1"/>
<path d="M49.9158 84.4846C50.4063 84.4846 50.8042 84.0855 50.8042 83.5931C50.8042 83.1006 50.4063 82.7015 49.9158 82.7015C49.4251 82.7015 49.0275 83.1006 49.0275 83.5931C49.0275 84.0855 49.4251 84.4846 49.9158 84.4846Z" fill="black" fill-opacity="0.1"/>
<path d="M59.7506 90.3221C60.2413 90.3221 60.639 89.923 60.639 89.4305C60.639 88.9381 60.2413 88.539 59.7506 88.539C59.2599 88.539 58.8623 88.9381 58.8623 89.4305C58.8623 89.923 59.2599 90.3221 59.7506 90.3221Z" fill="black" fill-opacity="0.1"/>
<path d="M69.5855 96.1595C70.0761 96.1595 70.4738 95.7605 70.4738 95.268C70.4738 94.7755 70.0761 94.3765 69.5855 94.3765C69.0948 94.3765 68.6971 94.7755 68.6971 95.268C68.6971 95.7605 69.0948 96.1595 69.5855 96.1595Z" fill="black" fill-opacity="0.1"/>
<path d="M79.4207 101.997C79.9114 101.997 80.309 101.598 80.309 101.105C80.309 100.613 79.9114 100.214 79.4207 100.214C78.9302 100.214 78.5324 100.613 78.5324 101.105C78.5324 101.598 78.9302 101.997 79.4207 101.997Z" fill="black" fill-opacity="0.1"/>
<path d="M49.9158 95.9895C50.4063 95.9895 50.8042 95.5904 50.8042 95.098C50.8042 94.6057 50.4063 94.2064 49.9158 94.2064C49.4251 94.2064 49.0275 94.6057 49.0275 95.098C49.0275 95.5904 49.4251 95.9895 49.9158 95.9895Z" fill="black" fill-opacity="0.1"/>
<path d="M59.7506 101.827C60.2413 101.827 60.639 101.428 60.639 100.935C60.639 100.443 60.2413 100.044 59.7506 100.044C59.2599 100.044 58.8623 100.443 58.8623 100.935C58.8623 101.428 59.2599 101.827 59.7506 101.827Z" fill="black" fill-opacity="0.1"/>
<path d="M69.5855 107.664C70.0761 107.664 70.4738 107.265 70.4738 106.773C70.4738 106.281 70.0761 105.881 69.5855 105.881C69.0948 105.881 68.6971 106.281 68.6971 106.773C68.6971 107.265 69.0948 107.664 69.5855 107.664Z" fill="black" fill-opacity="0.1"/>
<path d="M49.9158 107.494C50.4063 107.494 50.8042 107.095 50.8042 106.603C50.8042 106.111 50.4063 105.711 49.9158 105.711C49.4251 105.711 49.0275 106.111 49.0275 106.603C49.0275 107.095 49.4251 107.494 49.9158 107.494Z" fill="black" fill-opacity="0.1"/>
<path d="M59.7506 113.332C60.2413 113.332 60.639 112.933 60.639 112.44C60.639 111.948 60.2413 111.549 59.7506 111.549C59.2599 111.549 58.8623 111.948 58.8623 112.44C58.8623 112.933 59.2599 113.332 59.7506 113.332Z" fill="black" fill-opacity="0.1"/>
<path d="M49.9158 119C50.4063 119 50.8042 118.601 50.8042 118.108C50.8042 117.616 50.4063 117.217 49.9158 117.217C49.4251 117.217 49.0275 117.616 49.0275 118.108C49.0275 118.601 49.4251 119 49.9158 119Z" fill="black" fill-opacity="0.1"/>
<path d="M48.9006 1.78308C49.3911 1.78308 49.7889 1.38401 49.7889 0.891538C49.7889 0.399279 49.3911 0 48.9006 0C48.4099 0 48.0123 0.399279 48.0123 0.891538C48.0123 1.38401 48.4099 1.78308 48.9006 1.78308Z" fill="black" fill-opacity="0.1"/>
<path d="M39.0654 7.62056C39.5558 7.62056 39.9535 7.22148 39.9535 6.72901C39.9535 6.23675 39.5558 5.83747 39.0654 5.83747C38.5747 5.83747 38.1768 6.23675 38.1768 6.72901C38.1768 7.22148 38.5747 7.62056 39.0654 7.62056Z" fill="black" fill-opacity="0.1"/>
<path d="M29.2299 13.458C29.7206 13.458 30.1182 13.059 30.1182 12.5665C30.1182 12.0742 29.7206 11.6749 29.2299 11.6749C28.7394 11.6749 28.3416 12.0742 28.3416 12.5665C28.3416 13.059 28.7394 13.458 29.2299 13.458Z" fill="black" fill-opacity="0.1"/>
<path d="M19.3951 19.2955C19.8856 19.2955 20.2834 18.8964 20.2834 18.404C20.2834 17.9117 19.8856 17.5124 19.3951 17.5124C18.9044 17.5124 18.5068 17.9117 18.5068 18.404C18.5068 18.8964 18.9044 19.2955 19.3951 19.2955Z" fill="black" fill-opacity="0.1"/>
<path d="M9.56028 25.133C10.0508 25.133 10.4486 24.7339 10.4486 24.2414C10.4486 23.7492 10.0508 23.3499 9.56028 23.3499C9.06959 23.3499 8.67196 23.7492 8.67196 24.2414C8.67196 24.7339 9.06959 25.133 9.56028 25.133Z" fill="black" fill-opacity="0.1"/>
<path d="M48.9006 13.2886C49.3911 13.2886 49.7889 12.8894 49.7889 12.3971C49.7889 11.9046 49.3911 11.5056 48.9006 11.5056C48.4099 11.5056 48.0123 11.9046 48.0123 12.3971C48.0123 12.8894 48.4099 13.2886 48.9006 13.2886Z" fill="black" fill-opacity="0.1"/>
<path d="M39.0654 19.1261C39.5558 19.1261 39.9535 18.7268 39.9535 18.2346C39.9535 17.7421 39.5558 17.343 39.0654 17.343C38.5747 17.343 38.1768 17.7421 38.1768 18.2346C38.1768 18.7268 38.5747 19.1261 39.0654 19.1261Z" fill="black" fill-opacity="0.1"/>
<path d="M29.2299 24.9636C29.7206 24.9636 30.1182 24.5643 30.1182 24.072C30.1182 23.5796 29.7206 23.1805 29.2299 23.1805C28.7394 23.1805 28.3416 23.5796 28.3416 24.072C28.3416 24.5643 28.7394 24.9636 29.2299 24.9636Z" fill="black" fill-opacity="0.1"/>
<path d="M48.7523 1.78308C49.243 1.78308 49.6407 1.38401 49.6407 0.891538C49.6407 0.399279 49.243 0 48.7523 0C48.2618 0 47.864 0.399279 47.864 0.891538C47.864 1.38401 48.2618 1.78308 48.7523 1.78308Z" fill="black" fill-opacity="0.1"/>
<path d="M58.5871 7.62056C59.0778 7.62056 59.4755 7.22148 59.4755 6.72901C59.4755 6.23675 59.0778 5.83747 58.5871 5.83747C58.0967 5.83747 57.6988 6.23675 57.6988 6.72901C57.6988 7.22148 58.0967 7.62056 58.5871 7.62056Z" fill="black" fill-opacity="0.1"/>
<path d="M68.4226 13.458C68.9131 13.458 69.3109 13.059 69.3109 12.5665C69.3109 12.0742 68.9131 11.6749 68.4226 11.6749C67.9319 11.6749 67.5343 12.0742 67.5343 12.5665C67.5343 13.059 67.9319 13.458 68.4226 13.458Z" fill="black" fill-opacity="0.1"/>
<path d="M78.2574 19.2955C78.7481 19.2955 79.1457 18.8964 79.1457 18.404C79.1457 17.9117 78.7481 17.5124 78.2574 17.5124C77.7667 17.5124 77.3691 17.9117 77.3691 18.404C77.3691 18.8964 77.7667 19.2955 78.2574 19.2955Z" fill="black" fill-opacity="0.1"/>
<path d="M88.1134 25.133C88.6041 25.133 89.0017 24.7339 89.0017 24.2414C89.0017 23.7492 88.6041 23.3499 88.1134 23.3499C87.6227 23.3499 87.225 23.7492 87.225 24.2414C87.225 24.7339 87.6227 25.133 88.1134 25.133Z" fill="black" fill-opacity="0.1"/>
<path d="M48.7523 13.2886C49.243 13.2886 49.6407 12.8894 49.6407 12.3971C49.6407 11.9046 49.243 11.5056 48.7523 11.5056C48.2618 11.5056 47.864 11.9046 47.864 12.3971C47.864 12.8894 48.2618 13.2886 48.7523 13.2886Z" fill="black" fill-opacity="0.1"/>
<path d="M58.5871 19.1261C59.0778 19.1261 59.4755 18.7268 59.4755 18.2346C59.4755 17.7421 59.0778 17.343 58.5871 17.343C58.0967 17.343 57.6988 17.7421 57.6988 18.2346C57.6988 18.7268 58.0967 19.1261 58.5871 19.1261Z" fill="black" fill-opacity="0.1"/>
<path d="M68.4226 24.9636C68.9131 24.9636 69.3109 24.5643 69.3109 24.072C69.3109 23.5796 68.9131 23.1805 68.4226 23.1805C67.9319 23.1805 67.5343 23.5796 67.5343 24.072C67.5343 24.5643 67.9319 24.9636 68.4226 24.9636Z" fill="black" fill-opacity="0.1"/>
</svg>
