<svg width="94" height="108" viewBox="0 0 94 108" fill="none" xmlns="http://www.w3.org/2000/svg">
<path d="M46.9884 10.5012L64.9336 20.8644L74.0326 15.6253L46.9884 0L1.81529 26.1035L10.8683 31.3426L46.9884 10.5012Z" fill="black" fill-opacity="0.1"/>
<path d="M83.0857 20.8646L46.9885 41.7061L29.0433 31.3428L19.9673 36.5819L46.9885 52.1842L92.1846 26.1037L83.0857 20.8646Z" fill="black" fill-opacity="0.1"/>
<path d="M9.07599 55.9308L0 50.6917V81.8965L45.1731 108V97.5218L9.07599 76.6574V55.9308Z" fill="black" fill-opacity="0.1"/>
<path d="M0 40.211L36.0972 61.0525V81.7791L45.1731 87.0411V55.8134L0 29.7329V40.211Z" fill="black" fill-opacity="0.1"/>
<path d="M75.848 50.6905V40.2123L48.8038 55.8147V107.999L57.8798 102.76V61.0538L75.848 50.6905Z" fill="black" fill-opacity="0.1"/>
<path d="M84.901 34.972V76.6549L66.9558 87.0411V97.5193L94 81.894V29.7329L84.901 34.972Z" fill="black" fill-opacity="0.1"/>
</svg>
