<svg width="23" height="33" viewBox="0 0 23 33" fill="none" xmlns="http://www.w3.org/2000/svg">
<path d="M13.2671 18.8925L15.1526 17.007C15.7221 16.4375 16.6455 16.4375 17.215 17.007C17.7845 17.5766 17.7845 18.4999 17.215 19.0694L13.2671 23.0173V26.2705C16.8526 25.6072 19.5631 22.5437 19.5631 18.8646C19.5631 14.701 11.8088 5.4668 11.8088 5.4668C11.8088 5.4668 4.05439 14.701 4.05439 18.8646C4.05439 22.5437 6.76496 25.6072 10.3504 26.2705V15.1194C10.3504 14.3152 10.9977 13.6632 11.8088 13.6632C12.6142 13.6632 13.2671 14.3158 13.2671 15.1194V18.8925ZM13.2671 29.5304V31.1654C13.2671 31.9696 12.6198 32.6216 11.8088 32.6216C11.0034 32.6216 10.3504 31.969 10.3504 31.1654V29.5304C4.993 28.8321 0.833344 24.3401 0.833344 18.8646C0.833344 16.7632 1.8064 14.3917 3.51887 11.5152C4.04362 10.6337 4.63251 9.72048 5.27452 8.78358C6.1639 7.48571 7.11139 6.20478 8.05864 4.99199C8.39027 4.5674 8.69885 4.18081 8.97695 3.83897C9.14684 3.63015 9.27105 3.48001 9.34209 3.39542L11.8088 0.458008L14.2755 3.39542C14.3465 3.48001 14.4707 3.63015 14.6406 3.83897C14.9187 4.18081 15.2273 4.5674 15.5589 4.99199C16.5062 6.20478 17.4536 7.48571 18.343 8.78358C18.985 9.72048 19.5739 10.6337 20.0987 11.5152C21.8111 14.3917 22.7842 16.7632 22.7842 18.8646C22.7842 24.3401 18.6245 28.8321 13.2671 29.5304Z" fill="#F8F8F8"/>
</svg>
