<svg width="897" height="483" viewBox="0 0 897 483" fill="none" xmlns="http://www.w3.org/2000/svg">
<g opacity="0.5">
<path d="M459.921 27.5074C453.757 33.6717 443.758 33.6666 437.587 27.4959C431.416 21.3252 431.411 11.3257 437.575 5.16141C443.74 -1.0029 453.739 -0.997756 459.91 5.17292C466.081 11.3436 466.086 21.3431 459.921 27.5074Z" fill="#2D2D2D"/>
<path d="M392.951 92.2427C387.403 97.7906 378.404 97.7859 372.85 92.2323C367.297 86.6787 367.292 77.6792 372.84 72.1313C378.388 66.5834 387.387 66.588 392.941 72.1416C398.494 77.6952 398.499 86.6948 392.951 92.2427Z" fill="#2D2D2D"/>
<path d="M327.655 153.071C323.031 157.694 315.532 157.69 310.904 153.062C306.276 148.434 306.272 140.934 310.895 136.311C315.518 131.688 323.018 131.692 327.646 136.32C332.274 140.948 332.278 148.447 327.655 153.071Z" fill="#2D2D2D"/>
<path d="M266.823 211.667C263.125 215.366 257.125 215.363 253.423 211.66C249.72 207.958 249.717 201.958 253.416 198.26C257.114 194.561 263.114 194.564 266.816 198.267C270.519 201.969 270.522 207.969 266.823 211.667Z" fill="#2D2D2D"/>
<path d="M208.782 267.473C205.7 270.556 200.7 270.553 197.615 267.468C194.53 264.382 194.527 259.383 197.609 256.3C200.691 253.218 205.691 253.221 208.776 256.306C211.862 259.392 211.864 264.391 208.782 267.473Z" fill="#2D2D2D"/>
<path d="M152.415 319.372C150.257 321.53 146.757 321.528 144.598 319.368C142.438 317.208 142.436 313.709 144.594 311.551C146.751 309.394 150.251 309.395 152.411 311.555C154.57 313.715 154.572 317.215 152.415 319.372Z" fill="#2D2D2D"/>
<path d="M99.9544 369.598C98.4133 371.139 95.9134 371.137 94.3707 369.595C92.8281 368.052 92.8268 365.552 94.3679 364.011C95.9089 362.47 98.4088 362.471 99.9515 364.014C101.494 365.557 101.495 368.057 99.9544 369.598Z" fill="#2D2D2D"/>
<path d="M49.7268 417.591C48.8021 418.516 47.3022 418.515 46.3766 417.589C45.451 416.664 45.4502 415.164 46.3749 414.239C47.2995 413.315 48.7995 413.315 49.7251 414.241C50.6507 415.166 50.6514 416.666 49.7268 417.591Z" fill="#2D2D2D"/>
<path d="M1.73108 463.352C1.42287 463.66 0.922892 463.66 0.614358 463.351C0.305824 463.043 0.305565 462.543 0.613781 462.234C0.921997 461.926 1.42197 461.926 1.73051 462.235C2.03904 462.544 2.0393 463.044 1.73108 463.352Z" fill="#2D2D2D"/>
<path d="M524.714 72.2098C530.268 77.7634 530.273 86.763 524.725 92.3108C519.177 97.8587 510.177 97.8541 504.624 92.3005C499.07 86.7469 499.066 77.7473 504.613 72.1994C510.161 66.6516 519.161 66.6562 524.714 72.2098Z" fill="#2D2D2D"/>
<path d="M585.61 137.57C590.238 142.198 590.241 149.697 585.618 154.32C580.995 158.944 573.495 158.94 568.867 154.312C564.239 149.684 564.235 142.184 568.859 137.561C573.482 132.938 580.982 132.942 585.61 137.57Z" fill="#2D2D2D"/>
<path d="M644.269 198.461C647.972 202.164 647.975 208.164 644.276 211.862C640.577 215.561 634.578 215.558 630.875 211.855C627.173 208.153 627.17 202.153 630.868 198.455C634.567 194.756 640.567 194.759 644.269 198.461Z" fill="#2D2D2D"/>
<path d="M700.135 256.56C703.22 259.645 703.223 264.645 700.141 267.727C697.059 270.809 692.059 270.807 688.974 267.721C685.888 264.636 685.886 259.636 688.968 256.554C692.05 253.472 697.05 253.474 700.135 256.56Z" fill="#2D2D2D"/>
<path d="M752.092 312.981C754.252 315.141 754.254 318.641 752.096 320.798C749.939 322.956 746.439 322.954 744.279 320.794C742.119 318.635 742.118 315.135 744.275 312.977C746.433 310.82 749.932 310.822 752.092 312.981Z" fill="#2D2D2D"/>
<path d="M802.372 365.493C803.914 367.036 803.916 369.536 802.375 371.077C800.834 372.618 798.334 372.617 796.791 371.074C795.248 369.531 795.247 367.031 796.788 365.49C798.329 363.949 800.829 363.951 802.372 365.493Z" fill="#2D2D2D"/>
<path d="M850.417 415.771C851.342 416.696 851.343 418.196 850.418 419.121C849.494 420.045 847.994 420.045 847.068 419.119C846.143 418.193 846.142 416.693 847.066 415.769C847.991 414.844 849.491 414.845 850.417 415.771Z" fill="#2D2D2D"/>
<path d="M896.227 463.813C896.536 464.122 896.536 464.622 896.228 464.93C895.919 465.238 895.419 465.238 895.111 464.929C894.802 464.621 894.802 464.121 895.11 463.813C895.418 463.504 895.918 463.505 896.227 463.813Z" fill="#2D2D2D"/>
<path d="M459.42 138.621C464.048 143.249 464.052 150.749 459.429 155.372C454.806 159.995 447.306 159.991 442.678 155.363C438.05 150.735 438.046 143.236 442.67 138.613C447.293 133.989 454.792 133.993 459.42 138.621Z" fill="#2D2D2D"/>
<path d="M518.08 199.513C521.782 203.215 521.786 209.215 518.087 212.914C514.388 216.612 508.389 216.609 504.686 212.907C500.984 209.204 500.981 203.205 504.679 199.506C508.378 195.808 514.378 195.811 518.08 199.513Z" fill="#2D2D2D"/>
<path d="M573.946 257.611C577.031 260.697 577.034 265.697 573.952 268.779C570.87 271.861 565.87 271.858 562.784 268.773C559.699 265.688 559.697 260.688 562.779 257.606C565.861 254.524 570.861 254.526 573.946 257.611Z" fill="#2D2D2D"/>
<path d="M625.903 314.033C628.063 316.193 628.065 319.693 625.907 321.85C623.749 324.008 620.25 324.006 618.09 321.846C615.93 319.686 615.928 316.186 618.086 314.029C620.243 311.871 623.743 311.873 625.903 314.033Z" fill="#2D2D2D"/>
<path d="M676.183 366.545C677.725 368.088 677.727 370.587 676.185 372.128C674.644 373.67 672.145 373.668 670.602 372.126C669.059 370.583 669.058 368.083 670.599 366.542C672.14 365.001 674.64 365.002 676.183 366.545Z" fill="#2D2D2D"/>
<path d="M724.228 416.822C725.153 417.748 725.154 419.248 724.229 420.172C723.305 421.097 721.805 421.096 720.879 420.171C719.954 419.245 719.953 417.745 720.877 416.82C721.802 415.896 723.302 415.896 724.228 416.822Z" fill="#2D2D2D"/>
<path d="M770.038 464.865C770.346 465.173 770.347 465.673 770.039 465.981C769.73 466.29 769.23 466.289 768.922 465.981C768.613 465.672 768.613 465.172 768.921 464.864C769.229 464.556 769.729 464.556 770.038 464.865Z" fill="#2D2D2D"/>
<path d="M391.901 220.665C388.202 224.364 382.203 224.361 378.5 220.659C374.798 216.956 374.795 210.956 378.493 207.258C382.192 203.559 388.191 203.562 391.894 207.265C395.596 210.967 395.599 216.967 391.901 220.665Z" fill="#2D2D2D"/>
<path d="M333.86 276.471C330.778 279.554 325.778 279.551 322.693 276.466C319.607 273.38 319.605 268.381 322.687 265.298C325.769 262.216 330.769 262.219 333.854 265.304C336.939 268.39 336.942 273.389 333.86 276.471Z" fill="#2D2D2D"/>
<path d="M277.492 328.37C275.335 330.528 271.835 330.526 269.675 328.366C267.515 326.206 267.514 322.707 269.671 320.549C271.829 318.392 275.328 318.393 277.488 320.553C279.648 322.713 279.65 326.213 277.492 328.37Z" fill="#2D2D2D"/>
<path d="M225.032 378.596C223.491 380.137 220.991 380.135 219.448 378.593C217.906 377.05 217.904 374.55 219.445 373.009C220.986 371.468 223.486 371.469 225.029 373.012C226.572 374.555 226.573 377.055 225.032 378.596Z" fill="#2D2D2D"/>
<path d="M174.804 426.589C173.88 427.514 172.38 427.513 171.454 426.587C170.529 425.662 170.528 424.162 171.452 423.237C172.377 422.313 173.877 422.313 174.803 423.239C175.728 424.165 175.729 425.664 174.804 426.589Z" fill="#2D2D2D"/>
<path d="M126.809 472.35C126.5 472.658 126 472.658 125.692 472.349C125.383 472.041 125.383 471.541 125.691 471.232C126 470.924 126.5 470.924 126.808 471.233C127.117 471.542 127.117 472.042 126.809 472.35Z" fill="#2D2D2D"/>
<path d="M451.111 266.482C454.196 269.567 454.199 274.567 451.117 277.649C448.034 280.731 443.035 280.729 439.949 277.643C436.864 274.558 436.861 269.558 439.944 266.476C443.026 263.394 448.026 263.396 451.111 266.482Z" fill="#2D2D2D"/>
<path d="M503.068 322.903C505.228 325.063 505.229 328.563 503.072 330.72C500.914 332.878 497.415 332.876 495.255 330.716C493.095 328.557 493.093 325.057 495.251 322.899C497.408 320.742 500.908 320.744 503.068 322.903Z" fill="#2D2D2D"/>
<path d="M553.348 375.415C554.89 376.958 554.891 379.458 553.35 380.999C551.809 382.54 549.309 382.539 547.767 380.996C546.224 379.453 546.223 376.953 547.764 375.412C549.305 373.871 551.805 373.873 553.348 375.415Z" fill="#2D2D2D"/>
<path d="M601.392 425.692C602.318 426.618 602.319 428.118 601.394 429.043C600.47 429.967 598.97 429.967 598.044 429.041C597.118 428.115 597.118 426.615 598.042 425.691C598.967 424.766 600.467 424.767 601.392 425.692Z" fill="#2D2D2D"/>
<path d="M647.203 473.735C647.511 474.044 647.512 474.544 647.203 474.852C646.895 475.16 646.395 475.16 646.087 474.851C645.778 474.543 645.778 474.043 646.086 473.735C646.394 473.426 646.894 473.427 647.203 473.735Z" fill="#2D2D2D"/>
<path d="M392.516 331.78C390.359 333.937 386.859 333.935 384.699 331.776C382.539 329.616 382.538 326.116 384.695 323.959C386.853 321.801 390.352 321.803 392.512 323.963C394.672 326.122 394.674 329.622 392.516 331.78Z" fill="#2D2D2D"/>
<path d="M340.056 382.005C338.515 383.546 336.015 383.545 334.472 382.002C332.93 380.459 332.928 377.96 334.469 376.419C336.01 374.877 338.51 374.879 340.053 376.421C341.596 377.964 341.597 380.464 340.056 382.005Z" fill="#2D2D2D"/>
<path d="M289.828 429.998C288.904 430.923 287.404 430.922 286.478 429.997C285.552 429.071 285.552 427.571 286.476 426.647C287.401 425.722 288.901 425.723 289.827 426.648C290.752 427.574 290.753 429.074 289.828 429.998Z" fill="#2D2D2D"/>
<path d="M241.833 475.759C241.524 476.067 241.024 476.067 240.716 475.759C240.407 475.45 240.407 474.95 240.715 474.642C241.023 474.334 241.523 474.334 241.832 474.642C242.141 474.951 242.141 475.451 241.833 475.759Z" fill="#2D2D2D"/>
<path d="M446.143 377.593C447.685 379.136 447.687 381.636 446.146 383.177C444.604 384.718 442.105 384.717 440.562 383.174C439.019 381.631 439.018 379.131 440.559 377.59C442.1 376.049 444.6 376.05 446.143 377.593Z" fill="#2D2D2D"/>
<path d="M494.188 427.87C495.113 428.796 495.114 430.296 494.189 431.22C493.265 432.145 491.765 432.144 490.839 431.219C489.914 430.293 489.913 428.793 490.837 427.869C491.762 426.944 493.262 426.945 494.188 427.87Z" fill="#2D2D2D"/>
<path d="M539.998 475.913C540.307 476.222 540.307 476.722 539.999 477.03C539.691 477.338 539.191 477.338 538.882 477.029C538.574 476.721 538.573 476.221 538.882 475.913C539.19 475.605 539.69 475.605 539.998 475.913Z" fill="#2D2D2D"/>
<path d="M391.452 433.401C390.527 434.325 389.027 434.325 388.102 433.399C387.176 432.473 387.175 430.974 388.1 430.049C389.025 429.124 390.524 429.125 391.45 430.051C392.376 430.976 392.376 432.476 391.452 433.401Z" fill="#2D2D2D"/>
<path d="M343.456 479.161C343.148 479.47 342.648 479.469 342.339 479.161C342.031 478.852 342.031 478.352 342.339 478.044C342.647 477.736 343.147 477.736 343.456 478.045C343.764 478.353 343.764 478.853 343.456 479.161Z" fill="#2D2D2D"/>
<path d="M440.613 482.562C440.305 482.87 439.805 482.87 439.496 482.562C439.188 482.253 439.188 481.753 439.496 481.445C439.804 481.137 440.304 481.137 440.613 481.445C440.921 481.754 440.921 482.254 440.613 482.562Z" fill="#2D2D2D"/>
</g>
</svg>
