<svg width="1508" height="365" viewBox="0 0 1508 365" fill="none" xmlns="http://www.w3.org/2000/svg">
<g opacity="0.9" filter="url(#filter0_d)">
<path d="M1055 348.5C1490.5 348.5 1623.03 247.053 1623.03 214.5C1623.03 181.948 1406 4 1258 4C1110 4 597 108 159 122C-32.4038 128.118 -39.1057 201.551 142.5 258C376.473 330.726 849.101 348.5 1055 348.5Z" fill="#F8F8F8"/>
<path d="M1055 348.5C1490.5 348.5 1623.03 247.053 1623.03 214.5C1623.03 181.948 1406 4 1258 4C1110 4 597 108 159 122C-32.4038 128.118 -39.1057 201.551 142.5 258C376.473 330.726 849.101 348.5 1055 348.5Z" fill="url(#paint0_linear)"/>
</g>
<defs>
<filter id="filter0_d" x="0.736145" y="0" width="1632.29" height="364.5" filterUnits="userSpaceOnUse" color-interpolation-filters="sRGB">
<feFlood flood-opacity="0" result="BackgroundImageFix"/>
<feColorMatrix in="SourceAlpha" type="matrix" values="0 0 0 0 0 0 0 0 0 0 0 0 0 0 0 0 0 0 127 0"/>
<feOffset dy="6"/>
<feGaussianBlur stdDeviation="5"/>
<feColorMatrix type="matrix" values="0 0 0 0 0 0 0 0 0 0 0 0 0 0 0 0 0 0 0.05 0"/>
<feBlend mode="normal" in2="BackgroundImageFix" result="effect1_dropShadow"/>
<feBlend mode="normal" in="SourceGraphic" in2="effect1_dropShadow" result="shape"/>
</filter>
<linearGradient id="paint0_linear" x1="816.883" y1="-50" x2="816.883" y2="348.5" gradientUnits="userSpaceOnUse">
<stop stop-color="white"/>
<stop offset="1" stop-color="white" stop-opacity="0"/>
</linearGradient>
</defs>
</svg>
