<svg width="33" height="26" viewBox="0 0 33 26" fill="none" xmlns="http://www.w3.org/2000/svg">
<path d="M3.37501 9.5763V21.2564C3.37501 22.0435 4.02362 22.708 4.82371 22.708H28.1763C28.9761 22.708 29.625 22.0581 29.625 21.2564V9.5763C29.625 8.78918 29.1028 7.733 28.4586 7.24984L24.9581 4.62451C24.3093 4.13793 23.1435 3.74967 22.3438 3.74967H10.6943C9.90921 3.74967 8.72709 4.13666 8.08643 4.61403L4.53502 7.26031C3.89606 7.73642 3.37501 8.77459 3.37501 9.5763ZM0.458344 9.5763C0.458344 7.85473 1.41352 5.94891 2.79231 4.92153L6.34373 2.27525C7.48498 1.42486 9.27753 0.833008 10.6943 0.833008H22.3438C23.7772 0.833008 25.5566 1.42757 26.7081 2.29117L30.2086 4.91651C31.5837 5.94788 32.5417 7.86678 32.5417 9.5763V21.2564C32.5417 23.6676 30.5883 25.6247 28.1763 25.6247H4.82371C2.41192 25.6247 0.458344 23.6536 0.458344 21.2564V9.5763ZM19.4766 10.7106C22.8594 10.3347 29.625 9.58301 29.625 9.58301V12.4997L19.5112 13.6234L19.4766 10.7106ZM13.5195 13.6268C10.138 13.2511 3.37501 12.4997 3.37501 12.4997V9.58301L13.5447 10.713L13.5195 13.6268ZM16.5 13.958C15.6946 13.958 15.0417 13.3051 15.0417 12.4997C15.0417 11.6943 15.6946 11.0413 16.5 11.0413C17.3054 11.0413 17.9583 11.6943 17.9583 12.4997C17.9583 13.3051 17.3054 13.958 16.5 13.958Z" fill="#F8F8F8"/>
</svg>
