<svg width="28" height="33" viewBox="0 0 28 33" fill="none" xmlns="http://www.w3.org/2000/svg">
<path d="M5.83333 27.7142V16.8033C5.83333 16.0172 6.41914 15.6025 7.14178 15.9128C7.14178 15.9128 8.75 16.7325 10.2083 16.7325C11.6667 16.7325 16.0417 13.9693 18.9583 13.9693C21.875 13.9693 23.4305 14.8128 23.4305 14.8128C24.1971 15.0975 24.7917 14.704 24.7917 13.9059V5.74318C24.7917 4.95654 24.1823 4.05733 23.4305 3.76013C23.4305 3.76013 21.875 2.91667 18.9583 2.91667C16.0417 2.91667 13.125 5.67982 10.2083 5.67982C7.29167 5.67982 4.3131 4.69785 4.3131 4.69785C3.5424 4.48457 2.91667 4.94498 2.91667 5.74277V27.7221C2.91667 28.5015 3.56959 29.1667 4.375 29.1667C5.18603 29.1667 5.83333 28.5164 5.83333 27.7142ZM27.7083 5.74318V13.9059C27.7083 16.7674 25.059 18.5289 22.415 17.5469L22.2216 17.4751L22.0402 17.3767C22.0319 17.3722 21.8504 17.2973 21.5021 17.1998C20.8118 17.0066 19.9638 16.886 18.9583 16.886C18.4824 16.886 17.716 17.0652 16.7077 17.4291C16.2541 17.5928 15.7685 17.7862 15.1683 18.039C14.8861 18.1578 13.6582 18.6841 13.995 18.5402C13.5116 18.7467 13.1715 18.8882 12.8451 19.0162C11.7727 19.4366 11.0275 19.6491 10.2083 19.6491C10.0001 19.6491 9.79094 19.6396 9.58064 19.6213C9.30275 19.5972 9.02588 19.5584 8.75 19.5068V27.7142C8.75 30.1301 6.79401 32.0833 4.375 32.0833C1.96561 32.0833 0 30.1192 0 27.7221V5.74277C0 3.00462 2.47435 1.1627 5.22632 1.92784C5.51171 2.02193 6.06958 2.18004 6.79723 2.34108C7.93731 2.5934 9.06436 2.74873 10.0693 2.76222C10.1391 2.763 10.1391 2.763 10.2083 2.76316C10.8297 2.76316 11.5541 2.50583 13.3348 1.66234C15.9291 0.43346 17.1492 0 18.9583 0C20.505 0 21.8809 0.195693 23.0742 0.529656C23.757 0.720743 24.289 0.928992 24.6663 1.11611C26.4398 1.89897 27.7083 3.8116 27.7083 5.74318Z" fill="#F8F8F8"/>
</svg>
